<svg xmlns="http://www.w3.org/2000/svg" xmlns:xlink="http://www.w3.org/1999/xlink" width="192" zoomAndPan="magnify" viewBox="0 0 144 143.999998" height="192" preserveAspectRatio="xMidYMid meet" version="1.2"><defs><clipPath id="bdf7a3da51"><rect x="0" width="144" y="0" height="144"/></clipPath><clipPath id="dd456d4a54"><path d="M 14.398438 77.757812 L 129.898438 77.757812 L 129.898438 101 L 14.398438 101 Z M 14.398438 77.757812 "/></clipPath></defs><g id="c489417cef"><rect x="0" width="144" y="0" height="143.999998" style="fill:#ffffff;fill-opacity:1;stroke:none;"/><g transform="matrix(1,0,0,1,0,-0.000000000000008916)"><g clip-path="url(#bdf7a3da51)"><rect x="0" width="144" height="144" y="0" style="fill:#539246;fill-opacity:1;stroke:none;"/></g></g><g clip-rule="nonzero" clip-path="url(#dd456d4a54)"><path style=" stroke:none;fill-rule:nonzero;fill:#ffffff;fill-opacity:1;" d="M 93.144531 95.671875 L 109.21875 86.320312 C 110.324219 89.347656 114.402344 91.597656 119.261719 91.597656 C 124.96875 91.597656 129.601562 88.496094 129.601562 84.675781 C 129.601562 80.855469 124.96875 77.75 119.261719 77.75 C 114.332031 77.75 110.203125 80.070312 109.171875 83.164062 L 93.535156 91.605469 C 81.320312 98.199219 61.484375 98.199219 49.269531 91.601562 L 33.644531 83.164062 C 33.421875 82.558594 33.101562 81.949219 32.746094 81.488281 C 32.066406 80.609375 30.253906 79.902344 28.699219 79.914062 L 15.449219 79.996094 C 14.929688 80 14.496094 80.347656 14.484375 80.773438 C 14.46875 81.199219 14.878906 81.539062 15.398438 81.527344 L 26.945312 81.3125 C 27.464844 81.300781 27.882812 81.542969 27.882812 81.851562 C 27.882812 82.160156 27.464844 82.414062 26.945312 82.414062 L 15.40625 82.414062 C 14.886719 82.414062 14.457031 82.757812 14.441406 83.183594 C 14.429688 83.613281 14.839844 83.957031 15.355469 83.957031 L 26.945312 83.957031 C 27.464844 83.957031 27.882812 84.296875 27.882812 84.710938 C 27.882812 85.128906 27.464844 85.464844 26.945312 85.464844 L 15.355469 85.464844 C 14.839844 85.464844 14.417969 85.808594 14.417969 86.234375 C 14.417969 86.660156 14.839844 87.003906 15.355469 87.003906 L 26.945312 87.003906 C 27.464844 87.003906 27.882812 87.242188 27.882812 87.535156 C 27.882812 87.824219 27.464844 88.0625 26.945312 88.0625 L 15.449219 88.0625 C 14.929688 88.0625 14.496094 88.371094 14.484375 88.75 C 14.46875 89.128906 14.878906 89.4375 15.398438 89.4375 L 28.699219 89.4375 C 30.253906 89.4375 32.066406 88.726562 32.746094 87.847656 C 33.070312 87.421875 33.367188 86.875 33.585938 86.320312 L 49.660156 95.671875 C 61.660156 102.652344 81.144531 102.652344 93.144531 95.671875 Z M 93.144531 95.671875 "/></g><g style="fill:#ffffff;fill-opacity:1;"><g transform="translate(30.802275, 69.975911)"><path style="stroke:none" d="M 4.546875 -7.109375 L -2.453125 -6.53125 L 2.25 -3.53125 L 0.59375 -0.9375 L -10.046875 -7.75 L -8.390625 -10.34375 L -3.71875 -7.359375 L -6.109375 -13.890625 L -4.15625 -16.953125 L -1.578125 -9.46875 L 6.578125 -10.28125 Z M 4.546875 -7.109375 "/></g></g><g style="fill:#ffffff;fill-opacity:1;"><g transform="translate(37.295061, 60.287095)"><path style="stroke:none" d="M -6.328125 -9.5 C -6.691406 -9.101562 -7.101562 -8.882812 -7.5625 -8.84375 C -8.03125 -8.8125 -8.4375 -8.957031 -8.78125 -9.28125 C -9.132812 -9.601562 -9.3125 -10 -9.3125 -10.46875 C -9.3125 -10.9375 -9.128906 -11.367188 -8.765625 -11.765625 C -8.410156 -12.148438 -8 -12.359375 -7.53125 -12.390625 C -7.0625 -12.421875 -6.648438 -12.273438 -6.296875 -11.953125 C -5.953125 -11.628906 -5.78125 -11.234375 -5.78125 -10.765625 C -5.789062 -10.304688 -5.972656 -9.882812 -6.328125 -9.5 Z M -4.515625 -9.890625 L 2.84375 -3.0625 L 0.75 -0.8125 L -6.609375 -7.640625 Z M -4.515625 -9.890625 "/></g></g><g style="fill:#ffffff;fill-opacity:1;"><g transform="translate(40.415153, 56.770044)"><path style="stroke:none" d="M 3.484375 -6.3125 L 5.15625 -4.3125 L 3.9375 -3.296875 C 3.082031 -2.578125 2.242188 -2.226562 1.421875 -2.25 C 0.597656 -2.28125 -0.207031 -2.765625 -1 -3.703125 L -3.5625 -6.765625 L -4.515625 -5.96875 L -6.171875 -7.9375 L -5.21875 -8.734375 L -6.78125 -10.609375 L -4.421875 -12.59375 L -2.859375 -10.71875 L -1.3125 -12 L 0.34375 -10.03125 L -1.203125 -8.75 L 1.375 -5.65625 C 1.570312 -5.425781 1.765625 -5.304688 1.953125 -5.296875 C 2.148438 -5.285156 2.375 -5.382812 2.625 -5.59375 Z M 3.484375 -6.3125 "/></g></g><g style="fill:#ffffff;fill-opacity:1;"><g transform="translate(45.20798, 52.444501)"><path style="stroke:none" d="M -2.03125 -4.609375 C -2.550781 -5.523438 -2.816406 -6.425781 -2.828125 -7.3125 C -2.835938 -8.195312 -2.613281 -9.007812 -2.15625 -9.75 C -1.707031 -10.488281 -1.050781 -11.101562 -0.1875 -11.59375 C 0.90625 -12.207031 1.976562 -12.4375 3.03125 -12.28125 C 4.09375 -12.125 5.039062 -11.59375 5.875 -10.6875 L 3.015625 -9.078125 C 2.398438 -9.597656 1.742188 -9.664062 1.046875 -9.28125 C 0.554688 -9 0.273438 -8.585938 0.203125 -8.046875 C 0.128906 -7.503906 0.296875 -6.875 0.703125 -6.15625 C 1.097656 -5.445312 1.546875 -4.984375 2.046875 -4.765625 C 2.554688 -4.546875 3.054688 -4.578125 3.546875 -4.859375 C 4.242188 -5.242188 4.519531 -5.847656 4.375 -6.671875 L 7.234375 -8.28125 C 7.578125 -7.113281 7.539062 -6.03125 7.125 -5.03125 C 6.71875 -4.03125 5.972656 -3.222656 4.890625 -2.609375 C 4.023438 -2.117188 3.160156 -1.867188 2.296875 -1.859375 C 1.429688 -1.847656 0.625 -2.078125 -0.125 -2.546875 C -0.882812 -3.015625 -1.519531 -3.703125 -2.03125 -4.609375 Z M -2.03125 -4.609375 "/></g></g><g style="fill:#ffffff;fill-opacity:1;"><g transform="translate(53.657039, 47.437507)"><path style="stroke:none" d="M 4.140625 -11.796875 C 5.242188 -12.117188 6.238281 -12.007812 7.125 -11.46875 C 8.007812 -10.9375 8.632812 -10.035156 9 -8.765625 L 10.65625 -3.125 L 7.71875 -2.265625 L 6.1875 -7.5 C 6 -8.144531 5.6875 -8.59375 5.25 -8.84375 C 4.8125 -9.101562 4.3125 -9.148438 3.75 -8.984375 C 3.1875 -8.816406 2.785156 -8.503906 2.546875 -8.046875 C 2.316406 -7.597656 2.296875 -7.050781 2.484375 -6.40625 L 4.015625 -1.171875 L 1.0625 -0.3125 L -2.671875 -13.09375 L 0.28125 -13.953125 L 1.578125 -9.515625 C 1.753906 -10.035156 2.0625 -10.5 2.5 -10.90625 C 2.945312 -11.3125 3.492188 -11.609375 4.140625 -11.796875 Z M 4.140625 -11.796875 "/></g></g><g style="fill:#ffffff;fill-opacity:1;"><g transform="translate(64.231145, 44.27098)"><path style="stroke:none" d="M 10.296875 -5.75 C 10.304688 -5.457031 10.304688 -5.15625 10.296875 -4.84375 L 3.34375 -4.46875 C 3.425781 -3.84375 3.648438 -3.375 4.015625 -3.0625 C 4.390625 -2.757812 4.832031 -2.617188 5.34375 -2.640625 C 6.101562 -2.679688 6.617188 -3.035156 6.890625 -3.703125 L 10.15625 -3.875 C 10.019531 -3.207031 9.742188 -2.597656 9.328125 -2.046875 C 8.921875 -1.492188 8.394531 -1.050781 7.75 -0.71875 C 7.101562 -0.382812 6.375 -0.195312 5.5625 -0.15625 C 4.59375 -0.101562 3.710938 -0.265625 2.921875 -0.640625 C 2.128906 -1.015625 1.492188 -1.582031 1.015625 -2.34375 C 0.546875 -3.101562 0.285156 -4.003906 0.234375 -5.046875 C 0.179688 -6.085938 0.347656 -7.003906 0.734375 -7.796875 C 1.117188 -8.597656 1.6875 -9.226562 2.4375 -9.6875 C 3.1875 -10.15625 4.050781 -10.414062 5.03125 -10.46875 C 6 -10.519531 6.875 -10.359375 7.65625 -9.984375 C 8.4375 -9.617188 9.054688 -9.070312 9.515625 -8.34375 C 9.972656 -7.613281 10.234375 -6.75 10.296875 -5.75 Z M 7.109375 -6.375 C 7.078125 -6.894531 6.875 -7.300781 6.5 -7.59375 C 6.125 -7.882812 5.671875 -8.019531 5.140625 -8 C 4.617188 -7.96875 4.1875 -7.789062 3.84375 -7.46875 C 3.507812 -7.15625 3.316406 -6.722656 3.265625 -6.171875 Z M 7.109375 -6.375 "/></g></g><g style="fill:#ffffff;fill-opacity:1;"><g transform="translate(74.215194, 43.556068)"><path style="stroke:none" d="M 8.9375 -8.703125 C 10.09375 -8.492188 10.945312 -7.945312 11.5 -7.0625 C 12.0625 -6.1875 12.222656 -5.097656 11.984375 -3.796875 L 10.9375 1.984375 L 7.921875 1.4375 L 8.890625 -3.921875 C 9.015625 -4.585938 8.9375 -5.132812 8.65625 -5.5625 C 8.382812 -5.988281 7.960938 -6.253906 7.390625 -6.359375 C 6.804688 -6.460938 6.304688 -6.363281 5.890625 -6.0625 C 5.484375 -5.757812 5.21875 -5.273438 5.09375 -4.609375 L 4.125 0.75 L 1.09375 0.203125 L 2.890625 -9.6875 L 5.921875 -9.140625 L 5.6875 -7.828125 C 6.0625 -8.203125 6.535156 -8.472656 7.109375 -8.640625 C 7.679688 -8.804688 8.289062 -8.828125 8.9375 -8.703125 Z M 8.9375 -8.703125 "/></g></g><g style="fill:#ffffff;fill-opacity:1;"><g transform="translate(85.321858, 45.84317)"><path style="stroke:none" d=""/></g></g><g style="fill:#ffffff;fill-opacity:1;"><g transform="translate(88.337279, 46.414269)"><path style="stroke:none" d="M 16.6875 -5.171875 L 10.53125 5.875 L 7.84375 4.375 L 10.375 -0.171875 L 6.1875 -2.515625 L 3.65625 2.03125 L 0.96875 0.546875 L 7.125 -10.5 L 9.8125 -9.015625 L 7.40625 -4.6875 L 11.59375 -2.34375 L 14 -6.671875 Z M 16.6875 -5.171875 "/></g></g><g style="fill:#ffffff;fill-opacity:1;"><g transform="translate(98.842283, 52.169393)"><path style="stroke:none" d="M 14.921875 0.34375 L 7.984375 7.609375 L 5.75 5.484375 L 6.703125 4.484375 C 6.171875 4.585938 5.617188 4.554688 5.046875 4.390625 C 4.472656 4.222656 3.945312 3.914062 3.46875 3.46875 C 2.914062 2.9375 2.546875 2.34375 2.359375 1.6875 C 2.179688 1.03125 2.195312 0.363281 2.40625 -0.3125 C 2.613281 -1 3.019531 -1.660156 3.625 -2.296875 L 7.6875 -6.546875 L 9.90625 -4.4375 L 6.140625 -0.5 C 5.671875 -0.0078125 5.429688 0.484375 5.421875 0.984375 C 5.410156 1.492188 5.625 1.957031 6.0625 2.375 C 6.488281 2.78125 6.953125 2.96875 7.453125 2.9375 C 7.960938 2.90625 8.453125 2.644531 8.921875 2.15625 L 12.6875 -1.78125 Z M 14.921875 0.34375 "/></g></g><g style="fill:#ffffff;fill-opacity:1;"><g transform="translate(106.903216, 59.655281)"><path style="stroke:none" d="M 9.53125 -1.09375 C 10.082031 -1.09375 10.625 -0.941406 11.15625 -0.640625 C 11.6875 -0.335938 12.132812 0.101562 12.5 0.6875 C 12.945312 1.382812 13.171875 2.128906 13.171875 2.921875 C 13.179688 3.722656 12.960938 4.492188 12.515625 5.234375 C 12.066406 5.984375 11.410156 6.632812 10.546875 7.1875 C 9.660156 7.738281 8.785156 8.0625 7.921875 8.15625 C 7.054688 8.25 6.257812 8.125 5.53125 7.78125 C 4.8125 7.445312 4.226562 6.929688 3.78125 6.234375 C 3.40625 5.640625 3.191406 5.039062 3.140625 4.4375 C 3.097656 3.84375 3.195312 3.289062 3.4375 2.78125 L 2.25 3.53125 L 0.59375 0.9375 L 11.828125 -6.203125 L 13.484375 -3.609375 Z M 8.875 4.546875 C 9.507812 4.140625 9.894531 3.640625 10.03125 3.046875 C 10.175781 2.453125 10.082031 1.890625 9.75 1.359375 C 9.414062 0.847656 8.945312 0.523438 8.34375 0.390625 C 7.738281 0.265625 7.113281 0.410156 6.46875 0.828125 C 5.820312 1.234375 5.425781 1.738281 5.28125 2.34375 C 5.132812 2.945312 5.226562 3.503906 5.5625 4.015625 C 5.882812 4.535156 6.351562 4.851562 6.96875 4.96875 C 7.582031 5.09375 8.21875 4.953125 8.875 4.546875 Z M 8.875 4.546875 "/></g></g></g></svg>