<svg xmlns="http://www.w3.org/2000/svg" xmlns:xlink="http://www.w3.org/1999/xlink" width="298" zoomAndPan="magnify" viewBox="0 0 223.5 231" height="308" preserveAspectRatio="xMidYMid meet" version="1.2"><defs><clipPath id="5264498f68"><path d="M 0 0.257812 L 223 0.257812 L 223 230.742188 L 0 230.742188 Z M 0 0.257812 "/></clipPath><clipPath id="ab1cfba252"><path d="M 0 0.257812 L 222 0.257812 L 222 229.992188 L 0 229.992188 Z M 0 0.257812 "/></clipPath><clipPath id="3b8d1f197e"><path d="M 165.882812 61.585938 L 177.59375 61.585938 L 177.59375 71.40625 L 165.882812 71.40625 Z M 165.882812 61.585938 "/></clipPath><clipPath id="18922b55c0"><path d="M 0.882812 0.585938 L 12.59375 0.585938 L 12.59375 10.40625 L 0.882812 10.40625 Z M 0.882812 0.585938 "/></clipPath><clipPath id="47357814b4"><rect x="0" width="13" y="0" height="11"/></clipPath></defs><g id="5b5d7cff30"><g clip-rule="nonzero" clip-path="url(#5264498f68)"><path style=" stroke:none;fill-rule:nonzero;fill:#ffffff;fill-opacity:1;" d="M 0 0.257812 L 223 0.257812 L 223 230.742188 L 0 230.742188 Z M 0 0.257812 "/></g><g clip-rule="nonzero" clip-path="url(#ab1cfba252)"><path style=" stroke:none;fill-rule:nonzero;fill:#539246;fill-opacity:1;" d="M 218.382812 211.695312 L 163.308594 158.785156 C 179.667969 141.285156 188.632812 118.585938 188.632812 94.507812 C 188.632812 70.429688 178.816406 45.671875 161.027344 27.863281 C 143.21875 10.054688 119.550781 0.257812 94.378906 0.257812 C 69.210938 0.257812 45.542969 10.054688 27.734375 27.863281 C 9.925781 45.671875 0.128906 69.339844 0.128906 94.507812 C 0.128906 119.675781 9.925781 143.347656 27.734375 161.152344 C 45.542969 178.960938 69.210938 188.761719 94.378906 188.761719 C 113.363281 188.761719 131.476562 183.1875 146.882812 172.808594 L 203.492188 227.1875 C 205.5 229.113281 208.144531 230.183594 210.9375 230.183594 C 213.730469 230.183594 216.679688 228.976562 218.691406 226.878906 C 222.796875 222.601562 222.660156 215.785156 218.382812 211.679688 Z M 135.789062 156.382812 C 123.945312 164.324219 109.714844 168.957031 94.378906 168.957031 C 53.261719 168.957031 19.949219 135.628906 19.949219 94.527344 C 19.949219 53.425781 53.261719 20.074219 94.378906 20.074219 C 135.5 20.074219 168.8125 53.40625 168.8125 94.507812 C 168.8125 114.890625 160.617188 133.359375 147.34375 146.804688 C 143.832031 150.367188 139.945312 153.589844 135.773438 156.382812 Z M 135.789062 156.382812 "/></g><g clip-rule="nonzero" clip-path="url(#3b8d1f197e)"><g transform="matrix(1,0,0,1,165,61)"><g clip-path="url(#47357814b4)"><g clip-rule="nonzero" clip-path="url(#18922b55c0)"><path style=" stroke:none;fill-rule:nonzero;fill:#539246;fill-opacity:1;" d="M 0.882812 0.585938 L 12.585938 0.585938 L 12.585938 10.40625 L 0.882812 10.40625 Z M 0.882812 0.585938 "/></g></g></g></g></g></svg>