<svg xmlns="http://www.w3.org/2000/svg" xmlns:xlink="http://www.w3.org/1999/xlink" width="331" zoomAndPan="magnify" viewBox="0 0 248.25 248.999984" height="332" preserveAspectRatio="xMidYMid meet" version="1.2"><defs><clipPath id="bb00b1ab02"><path d="M 0 0.375 L 247.503906 0.375 L 247.503906 248.625 L 0 248.625 Z M 0 0.375 "/></clipPath><clipPath id="631f88b35b"><path d="M 0 0.375 L 247.449219 0.375 L 247.449219 247.898438 L 0 247.898438 Z M 0 0.375 "/></clipPath><clipPath id="e99842a58c"><path d="M 0 0.375 L 247.449219 0.375 L 247.449219 247.898438 L 0 247.898438 Z M 0 0.375 "/></clipPath><clipPath id="cf85c0f821"><rect x="0" width="248" y="0" height="248"/></clipPath><clipPath id="672e5fbbb6"><path d="M 8.871094 9.285156 L 238.429688 9.285156 L 238.429688 238.839844 L 8.871094 238.839844 Z M 8.871094 9.285156 "/></clipPath></defs><g id="5ad1461187"><g clip-rule="nonzero" clip-path="url(#bb00b1ab02)"><path style=" stroke:none;fill-rule:nonzero;fill:#ffffff;fill-opacity:1;" d="M 0 0.375 L 247.503906 0.375 L 247.503906 248.625 L 0 248.625 Z M 0 0.375 "/></g><g clip-rule="nonzero" clip-path="url(#631f88b35b)"><g transform="matrix(1,0,0,1,0,-0.000000000000009492)"><g clip-path="url(#cf85c0f821)"><g clip-rule="nonzero" clip-path="url(#e99842a58c)"><path style=" stroke:none;fill-rule:nonzero;fill:#ffffff;fill-opacity:1;" d="M 0 0.375 L 247.449219 0.375 L 247.449219 247.824219 L 0 247.824219 Z M 0 0.375 "/></g></g></g></g><g clip-rule="nonzero" clip-path="url(#672e5fbbb6)"><path style=" stroke:none;fill-rule:nonzero;fill:#539246;fill-opacity:1;" d="M 123.722656 9.285156 C 121.839844 9.285156 119.960938 9.328125 118.085938 9.421875 C 116.207031 9.515625 114.335938 9.652344 112.464844 9.835938 C 110.59375 10.019531 108.726562 10.25 106.867188 10.527344 C 105.011719 10.800781 103.160156 11.125 101.316406 11.492188 C 99.472656 11.855469 97.636719 12.269531 95.816406 12.726562 C 93.992188 13.183594 92.179688 13.683594 90.382812 14.230469 C 88.582031 14.773438 86.800781 15.363281 85.03125 15.996094 C 83.261719 16.628906 81.507812 17.308594 79.769531 18.027344 C 78.035156 18.746094 76.316406 19.507812 74.617188 20.308594 C 72.917969 21.113281 71.238281 21.960938 69.582031 22.84375 C 67.925781 23.730469 66.289062 24.65625 64.675781 25.625 C 63.066406 26.589844 61.476562 27.59375 59.914062 28.640625 C 58.351562 29.683594 56.816406 30.765625 55.304688 31.886719 C 53.796875 33.003906 52.316406 34.160156 50.863281 35.351562 C 49.410156 36.546875 47.984375 37.773438 46.59375 39.035156 C 45.199219 40.296875 43.839844 41.59375 42.511719 42.921875 C 41.183594 44.25 39.886719 45.613281 38.625 47.003906 C 37.363281 48.398438 36.132812 49.820312 34.941406 51.273438 C 33.75 52.726562 32.59375 54.207031 31.472656 55.71875 C 30.355469 57.226562 29.273438 58.761719 28.226562 60.324219 C 27.183594 61.890625 26.179688 63.476562 25.210938 65.089844 C 24.246094 66.699219 23.320312 68.335938 22.433594 69.992188 C 21.546875 71.652344 20.703125 73.328125 19.898438 75.027344 C 19.09375 76.726562 18.335938 78.445312 17.613281 80.183594 C 16.894531 81.917969 16.21875 83.671875 15.585938 85.441406 C 14.953125 87.210938 14.363281 88.996094 13.816406 90.792969 C 13.273438 92.59375 12.769531 94.402344 12.3125 96.226562 C 11.859375 98.050781 11.445312 99.882812 11.078125 101.726562 C 10.710938 103.570312 10.390625 105.421875 10.117188 107.28125 C 9.839844 109.140625 9.609375 111.003906 9.425781 112.875 C 9.242188 114.746094 9.101562 116.621094 9.011719 118.496094 C 8.917969 120.375 8.871094 122.253906 8.871094 124.132812 C 8.871094 126.011719 8.917969 127.890625 9.011719 129.765625 C 9.101562 131.644531 9.242188 133.519531 9.425781 135.390625 C 9.609375 137.261719 9.839844 139.125 10.117188 140.984375 C 10.390625 142.84375 10.710938 144.695312 11.078125 146.539062 C 11.445312 148.382812 11.859375 150.214844 12.3125 152.039062 C 12.769531 153.859375 13.273438 155.671875 13.816406 157.472656 C 14.363281 159.269531 14.953125 161.054688 15.585938 162.824219 C 16.21875 164.59375 16.894531 166.347656 17.613281 168.082031 C 18.335938 169.820312 19.09375 171.535156 19.898438 173.234375 C 20.703125 174.933594 21.546875 176.613281 22.433594 178.269531 C 23.320312 179.929688 24.246094 181.5625 25.210938 183.175781 C 26.179688 184.789062 27.183594 186.375 28.226562 187.9375 C 29.273438 189.5 30.355469 191.039062 31.472656 192.546875 C 32.59375 194.058594 33.75 195.539062 34.941406 196.992188 C 36.132812 198.445312 37.363281 199.867188 38.625 201.257812 C 39.886719 202.652344 41.183594 204.011719 42.511719 205.34375 C 43.839844 206.671875 45.199219 207.96875 46.59375 209.230469 C 47.984375 210.492188 49.410156 211.71875 50.863281 212.910156 C 52.316406 214.105469 53.796875 215.257812 55.304688 216.378906 C 56.816406 217.5 58.351562 218.582031 59.914062 219.625 C 61.476562 220.667969 63.066406 221.675781 64.675781 222.640625 C 66.289062 223.605469 67.925781 224.535156 69.582031 225.417969 C 71.238281 226.304688 72.917969 227.148438 74.617188 227.953125 C 76.316406 228.757812 78.035156 229.519531 79.769531 230.238281 C 81.507812 230.957031 83.261719 231.632812 85.03125 232.265625 C 86.800781 232.898438 88.582031 233.488281 90.382812 234.035156 C 92.179688 234.582031 93.992188 235.082031 95.816406 235.539062 C 97.636719 235.996094 99.472656 236.40625 101.316406 236.773438 C 103.160156 237.140625 105.011719 237.460938 106.867188 237.738281 C 108.726562 238.011719 110.59375 238.242188 112.464844 238.425781 C 114.335938 238.613281 116.207031 238.75 118.085938 238.84375 C 119.960938 238.933594 121.839844 238.980469 123.722656 238.980469 C 125.601562 238.980469 127.480469 238.933594 129.355469 238.84375 C 131.234375 238.75 133.105469 238.613281 134.976562 238.425781 C 136.847656 238.242188 138.714844 238.011719 140.574219 237.738281 C 142.433594 237.460938 144.28125 237.140625 146.125 236.773438 C 147.96875 236.40625 149.804688 235.996094 151.625 235.539062 C 153.449219 235.082031 155.261719 234.582031 157.058594 234.035156 C 158.859375 233.488281 160.640625 232.898438 162.410156 232.265625 C 164.183594 231.632812 165.933594 230.957031 167.671875 230.238281 C 169.40625 229.519531 171.125 228.757812 172.824219 227.953125 C 174.523438 227.148438 176.203125 226.304688 177.859375 225.417969 C 179.519531 224.535156 181.152344 223.605469 182.765625 222.640625 C 184.375 221.675781 185.964844 220.667969 187.527344 219.625 C 189.089844 218.582031 190.625 217.5 192.136719 216.378906 C 193.644531 215.257812 195.125 214.105469 196.578125 212.910156 C 198.03125 211.71875 199.457031 210.492188 200.847656 209.230469 C 202.242188 207.96875 203.601562 206.671875 204.929688 205.34375 C 206.261719 204.011719 207.554688 202.652344 208.816406 201.257812 C 210.082031 199.867188 211.308594 198.445312 212.5 196.992188 C 213.691406 195.539062 214.847656 194.058594 215.96875 192.546875 C 217.085938 191.039062 218.167969 189.5 219.214844 187.9375 C 220.257812 186.375 221.261719 184.789062 222.230469 183.175781 C 223.195312 181.5625 224.121094 179.929688 225.007812 178.269531 C 225.894531 176.613281 226.738281 174.933594 227.542969 173.234375 C 228.347656 171.535156 229.109375 169.820312 229.828125 168.082031 C 230.546875 166.347656 231.222656 164.59375 231.855469 162.824219 C 232.488281 161.054688 233.078125 159.269531 233.625 157.472656 C 234.167969 155.671875 234.671875 153.859375 235.128906 152.039062 C 235.585938 150.214844 235.996094 148.382812 236.363281 146.539062 C 236.730469 144.695312 237.050781 142.84375 237.324219 140.984375 C 237.601562 139.125 237.832031 137.261719 238.015625 135.390625 C 238.199219 133.519531 238.339844 131.644531 238.429688 129.765625 C 238.523438 127.890625 238.570312 126.011719 238.570312 124.132812 C 238.566406 122.253906 238.519531 120.375 238.425781 118.5 C 238.332031 116.621094 238.191406 114.75 238.003906 112.878906 C 237.816406 111.007812 237.585938 109.144531 237.308594 107.285156 C 237.03125 105.429688 236.710938 103.578125 236.339844 101.734375 C 235.972656 99.894531 235.558594 98.058594 235.101562 96.238281 C 234.644531 94.414062 234.140625 92.605469 233.59375 90.808594 C 233.046875 89.011719 232.457031 87.226562 231.824219 85.457031 C 231.1875 83.691406 230.511719 81.9375 229.792969 80.203125 C 229.070312 78.464844 228.308594 76.75 227.503906 75.050781 C 226.703125 73.351562 225.855469 71.675781 224.96875 70.019531 C 224.082031 68.363281 223.15625 66.726562 222.191406 65.117188 C 221.222656 63.503906 220.21875 61.917969 219.171875 60.355469 C 218.128906 58.792969 217.046875 57.257812 215.925781 55.75 C 214.808594 54.242188 213.652344 52.761719 212.460938 51.308594 C 211.269531 49.855469 210.039062 48.433594 208.777344 47.042969 C 207.515625 45.648438 206.222656 44.289062 204.894531 42.960938 C 203.5625 41.632812 202.203125 40.335938 200.8125 39.074219 C 199.417969 37.8125 197.996094 36.585938 196.542969 35.394531 C 195.09375 34.199219 193.613281 33.046875 192.101562 31.925781 C 190.59375 30.804688 189.058594 29.722656 187.496094 28.679688 C 185.933594 27.636719 184.347656 26.628906 182.734375 25.664062 C 181.125 24.695312 179.492188 23.769531 177.835938 22.882812 C 176.175781 21.996094 174.5 21.152344 172.800781 20.347656 C 171.105469 19.542969 169.386719 18.78125 167.652344 18.0625 C 165.914062 17.339844 164.164062 16.664062 162.394531 16.03125 C 160.625 15.394531 158.84375 14.804688 157.046875 14.257812 C 155.246094 13.710938 153.4375 13.210938 151.613281 12.75 C 149.792969 12.292969 147.960938 11.878906 146.117188 11.511719 C 144.273438 11.144531 142.425781 10.820312 140.566406 10.542969 C 138.707031 10.265625 136.84375 10.035156 134.972656 9.847656 C 133.105469 9.664062 131.230469 9.523438 129.355469 9.429688 C 127.476562 9.335938 125.601562 9.285156 123.722656 9.285156 Z M 123.722656 218.097656 C 122.183594 218.097656 120.644531 218.0625 119.109375 217.984375 C 117.574219 217.910156 116.039062 217.796875 114.511719 217.648438 C 112.980469 217.496094 111.453125 217.308594 109.933594 217.082031 C 108.410156 216.855469 106.898438 216.59375 105.390625 216.292969 C 103.878906 215.992188 102.378906 215.65625 100.890625 215.28125 C 99.398438 214.910156 97.914062 214.5 96.445312 214.054688 C 94.972656 213.605469 93.511719 213.125 92.0625 212.605469 C 90.617188 212.089844 89.183594 211.535156 87.761719 210.945312 C 86.339844 210.359375 84.933594 209.734375 83.542969 209.078125 C 82.15625 208.417969 80.78125 207.726562 79.425781 207.003906 C 78.070312 206.277344 76.730469 205.519531 75.414062 204.730469 C 74.09375 203.941406 72.792969 203.117188 71.515625 202.261719 C 70.238281 201.410156 68.980469 200.523438 67.746094 199.605469 C 66.507812 198.691406 65.296875 197.746094 64.109375 196.769531 C 62.921875 195.792969 61.757812 194.789062 60.617188 193.757812 C 59.476562 192.722656 58.363281 191.664062 57.277344 190.578125 C 56.1875 189.488281 55.128906 188.375 54.097656 187.238281 C 53.0625 186.097656 52.058594 184.933594 51.082031 183.742188 C 50.109375 182.554688 49.160156 181.34375 48.246094 180.109375 C 47.328125 178.871094 46.445312 177.617188 45.589844 176.335938 C 44.734375 175.058594 43.914062 173.761719 43.121094 172.441406 C 42.332031 171.121094 41.574219 169.785156 40.847656 168.429688 C 40.125 167.070312 39.433594 165.699219 38.777344 164.308594 C 38.117188 162.917969 37.496094 161.511719 36.90625 160.089844 C 36.316406 158.671875 35.765625 157.238281 35.246094 155.789062 C 34.730469 154.339844 34.246094 152.882812 33.800781 151.410156 C 33.355469 149.9375 32.945312 148.457031 32.570312 146.964844 C 32.195312 145.472656 31.859375 143.972656 31.558594 142.464844 C 31.257812 140.957031 30.996094 139.441406 30.769531 137.921875 C 30.546875 136.398438 30.355469 134.871094 30.207031 133.34375 C 30.054688 131.8125 29.941406 130.277344 29.867188 128.742188 C 29.792969 127.207031 29.753906 125.671875 29.753906 124.132812 C 29.753906 122.59375 29.792969 121.058594 29.867188 119.519531 C 29.941406 117.984375 30.054688 116.453125 30.207031 114.921875 C 30.355469 113.390625 30.546875 111.867188 30.769531 110.34375 C 30.996094 108.824219 31.257812 107.308594 31.558594 105.800781 C 31.859375 104.292969 32.195312 102.792969 32.570312 101.300781 C 32.945312 99.808594 33.355469 98.328125 33.800781 96.855469 C 34.246094 95.382812 34.730469 93.921875 35.246094 92.476562 C 35.765625 91.027344 36.316406 89.59375 36.90625 88.171875 C 37.496094 86.75 38.117188 85.347656 38.777344 83.957031 C 39.433594 82.566406 40.125 81.191406 40.847656 79.835938 C 41.574219 78.480469 42.332031 77.144531 43.121094 75.824219 C 43.914062 74.503906 44.734375 73.207031 45.589844 71.925781 C 46.445312 70.648438 47.328125 69.390625 48.246094 68.15625 C 49.160156 66.921875 50.109375 65.710938 51.082031 64.519531 C 52.058594 63.332031 53.0625 62.167969 54.097656 61.027344 C 55.128906 59.886719 56.1875 58.773438 57.277344 57.6875 C 58.363281 56.601562 59.476562 55.539062 60.617188 54.507812 C 61.757812 53.476562 62.921875 52.46875 64.109375 51.496094 C 65.296875 50.519531 66.507812 49.574219 67.746094 48.65625 C 68.980469 47.742188 70.238281 46.855469 71.515625 46 C 72.792969 45.148438 74.09375 44.324219 75.414062 43.535156 C 76.730469 42.742188 78.070312 41.984375 79.425781 41.261719 C 80.78125 40.535156 82.15625 39.84375 83.542969 39.1875 C 84.933594 38.53125 86.339844 37.90625 87.761719 37.316406 C 89.183594 36.730469 90.617188 36.175781 92.0625 35.660156 C 93.511719 35.140625 94.972656 34.65625 96.445312 34.210938 C 97.914062 33.765625 99.398438 33.355469 100.890625 32.980469 C 102.378906 32.609375 103.878906 32.269531 105.390625 31.972656 C 106.898438 31.671875 108.410156 31.40625 109.933594 31.183594 C 111.453125 30.957031 112.980469 30.769531 114.511719 30.617188 C 116.039062 30.46875 117.574219 30.355469 119.109375 30.277344 C 120.644531 30.203125 122.183594 30.164062 123.722656 30.164062 C 125.257812 30.164062 126.796875 30.203125 128.332031 30.277344 C 129.867188 30.355469 131.402344 30.46875 132.929688 30.617188 C 134.460938 30.769531 135.988281 30.957031 137.507812 31.183594 C 139.03125 31.40625 140.542969 31.671875 142.054688 31.972656 C 143.5625 32.269531 145.0625 32.609375 146.554688 32.980469 C 148.042969 33.355469 149.527344 33.765625 150.996094 34.210938 C 152.46875 34.65625 153.929688 35.140625 155.378906 35.660156 C 156.824219 36.175781 158.257812 36.730469 159.679688 37.316406 C 161.101562 37.90625 162.507812 38.53125 163.898438 39.1875 C 165.285156 39.84375 166.660156 40.535156 168.015625 41.261719 C 169.371094 41.984375 170.710938 42.742188 172.03125 43.535156 C 173.347656 44.324219 174.648438 45.148438 175.925781 46 C 177.203125 46.855469 178.460938 47.742188 179.695312 48.65625 C 180.933594 49.574219 182.144531 50.519531 183.332031 51.496094 C 184.523438 52.46875 185.6875 53.476562 186.824219 54.507812 C 187.964844 55.539062 189.078125 56.601562 190.164062 57.6875 C 191.253906 58.773438 192.3125 59.886719 193.34375 61.027344 C 194.378906 62.167969 195.382812 63.332031 196.359375 64.519531 C 197.332031 65.710938 198.28125 66.921875 199.195312 68.15625 C 200.113281 69.390625 200.996094 70.648438 201.851562 71.925781 C 202.707031 73.207031 203.527344 74.503906 204.320312 75.824219 C 205.109375 77.144531 205.867188 78.480469 206.59375 79.835938 C 207.316406 81.191406 208.007812 82.566406 208.664062 83.957031 C 209.324219 85.347656 209.945312 86.75 210.535156 88.171875 C 211.125 89.59375 211.675781 91.027344 212.195312 92.476562 C 212.710938 93.921875 213.195312 95.382812 213.640625 96.855469 C 214.089844 98.328125 214.496094 99.808594 214.871094 101.300781 C 215.246094 102.792969 215.582031 104.292969 215.882812 105.800781 C 216.183594 107.308594 216.445312 108.824219 216.671875 110.34375 C 216.894531 111.867188 217.085938 113.390625 217.234375 114.921875 C 217.386719 116.453125 217.5 117.984375 217.574219 119.519531 C 217.648438 121.058594 217.6875 122.59375 217.6875 124.132812 C 217.6875 125.667969 217.648438 127.207031 217.570312 128.742188 C 217.492188 130.277344 217.378906 131.808594 217.226562 133.339844 C 217.074219 134.867188 216.882812 136.394531 216.65625 137.914062 C 216.429688 139.433594 216.167969 140.949219 215.863281 142.457031 C 215.5625 143.964844 215.226562 145.464844 214.851562 146.953125 C 214.476562 148.445312 214.066406 149.925781 213.617188 151.398438 C 213.171875 152.867188 212.6875 154.328125 212.167969 155.773438 C 211.648438 157.222656 211.097656 158.65625 210.507812 160.074219 C 209.917969 161.496094 209.292969 162.898438 208.636719 164.289062 C 207.976562 165.679688 207.285156 167.050781 206.5625 168.40625 C 205.835938 169.761719 205.078125 171.101562 204.289062 172.417969 C 203.496094 173.738281 202.671875 175.035156 201.820312 176.3125 C 200.964844 177.589844 200.078125 178.847656 199.164062 180.082031 C 198.246094 181.316406 197.300781 182.527344 196.328125 183.714844 C 195.351562 184.90625 194.347656 186.066406 193.3125 187.207031 C 192.28125 188.347656 191.222656 189.460938 190.136719 190.546875 C 189.046875 191.632812 187.933594 192.691406 186.796875 193.726562 C 185.65625 194.757812 184.492188 195.761719 183.304688 196.738281 C 182.117188 197.714844 180.90625 198.660156 179.671875 199.574219 C 178.4375 200.492188 177.179688 201.375 175.902344 202.230469 C 174.625 203.085938 173.324219 203.90625 172.007812 204.699219 C 170.6875 205.488281 169.351562 206.246094 167.996094 206.972656 C 166.640625 207.699219 165.269531 208.390625 163.878906 209.046875 C 162.488281 209.707031 161.085938 210.328125 159.664062 210.917969 C 158.246094 211.507812 156.8125 212.0625 155.363281 212.582031 C 153.917969 213.097656 152.457031 213.582031 150.984375 214.03125 C 149.515625 214.476562 148.035156 214.886719 146.542969 215.261719 C 145.050781 215.636719 143.554688 215.976562 142.046875 216.277344 C 140.539062 216.578125 139.023438 216.839844 137.503906 217.070312 C 135.984375 217.296875 134.457031 217.484375 132.929688 217.636719 C 131.398438 217.789062 129.867188 217.902344 128.328125 217.980469 C 126.792969 218.058594 125.257812 218.097656 123.722656 218.097656 Z M 123.722656 218.097656 "/></g><path style=" stroke:none;fill-rule:nonzero;fill:#539246;fill-opacity:1;" d="M 134.160156 119.808594 L 134.160156 82.371094 C 134.160156 81.683594 134.09375 81.003906 133.960938 80.332031 C 133.828125 79.660156 133.628906 79.007812 133.367188 78.375 C 133.105469 77.742188 132.78125 77.136719 132.402344 76.570312 C 132.019531 76 131.589844 75.472656 131.105469 74.988281 C 130.617188 74.5 130.089844 74.070312 129.519531 73.6875 C 128.953125 73.308594 128.351562 72.984375 127.714844 72.722656 C 127.082031 72.460938 126.429688 72.261719 125.757812 72.128906 C 125.085938 71.996094 124.40625 71.929688 123.722656 71.929688 C 123.035156 71.929688 122.355469 71.996094 121.683594 72.128906 C 121.011719 72.261719 120.359375 72.460938 119.726562 72.722656 C 119.09375 72.984375 118.492188 73.308594 117.921875 73.6875 C 117.351562 74.070312 116.824219 74.5 116.339844 74.988281 C 115.851562 75.472656 115.421875 76 115.039062 76.570312 C 114.660156 77.136719 114.335938 77.742188 114.074219 78.375 C 113.8125 79.007812 113.613281 79.660156 113.480469 80.332031 C 113.347656 81.003906 113.28125 81.683594 113.28125 82.371094 L 113.28125 124.132812 L 113.289062 124.183594 C 113.300781 125.558594 113.566406 126.878906 114.097656 128.148438 C 114.625 129.417969 115.375 130.542969 116.34375 131.515625 L 145.867188 161.046875 C 146.347656 161.542969 146.875 161.988281 147.445312 162.378906 C 148.015625 162.773438 148.617188 163.105469 149.253906 163.378906 C 149.890625 163.648438 150.550781 163.855469 151.226562 163.996094 C 151.902344 164.140625 152.589844 164.210938 153.28125 164.21875 C 153.972656 164.222656 154.660156 164.160156 155.339844 164.027344 C 156.019531 163.898438 156.679688 163.699219 157.320312 163.4375 C 157.960938 163.175781 158.570312 162.851562 159.144531 162.46875 C 159.722656 162.085938 160.253906 161.648438 160.742188 161.160156 C 161.234375 160.671875 161.667969 160.136719 162.054688 159.5625 C 162.4375 158.984375 162.761719 158.378906 163.023438 157.738281 C 163.285156 157.097656 163.480469 156.4375 163.613281 155.757812 C 163.742188 155.078125 163.808594 154.390625 163.800781 153.699219 C 163.796875 153.007812 163.722656 152.320312 163.582031 151.644531 C 163.441406 150.964844 163.234375 150.308594 162.960938 149.671875 C 162.6875 149.035156 162.355469 148.433594 161.964844 147.863281 C 161.574219 147.292969 161.128906 146.765625 160.632812 146.285156 Z M 134.160156 119.808594 "/></g></svg>