<svg xmlns="http://www.w3.org/2000/svg" xmlns:xlink="http://www.w3.org/1999/xlink" width="231" zoomAndPan="magnify" viewBox="0 0 173.25 159.749995" height="213" preserveAspectRatio="xMidYMid meet" version="1.2"><defs><clipPath id="9168256604"><path d="M 0 0.21875 L 172.503906 0.21875 L 172.503906 159.28125 L 0 159.28125 Z M 0 0.21875 "/></clipPath><clipPath id="85236106f9"><path d="M 0 0.21875 L 172.011719 0.21875 L 172.011719 158.546875 L 0 158.546875 Z M 0 0.21875 "/></clipPath><clipPath id="7a225f869c"><path d="M 0 0.21875 L 172 0.21875 L 172 158.546875 L 0 158.546875 Z M 0 0.21875 "/></clipPath><clipPath id="485e3d3232"><rect x="0" width="173" y="0" height="159"/></clipPath><clipPath id="4015372224"><path d="M 13.074219 0.21875 L 150 0.21875 L 150 158.535156 L 13.074219 158.535156 Z M 13.074219 0.21875 "/></clipPath></defs><g id="d93aee1e2e"><g clip-rule="nonzero" clip-path="url(#9168256604)"><path style=" stroke:none;fill-rule:nonzero;fill:#ffffff;fill-opacity:1;" d="M 0 0.21875 L 172.503906 0.21875 L 172.503906 159.28125 L 0 159.28125 Z M 0 0.21875 "/></g><g clip-rule="nonzero" clip-path="url(#85236106f9)"><g transform="matrix(1,0,0,1,0,0.000000000000007494)"><g clip-path="url(#485e3d3232)"><g clip-rule="nonzero" clip-path="url(#7a225f869c)"><path style=" stroke:none;fill-rule:nonzero;fill:#ffffff;fill-opacity:1;" d="M 0 0.21875 L 171.933594 0.21875 L 171.933594 158.546875 L 0 158.546875 Z M 0 0.21875 "/></g></g></g></g><g clip-rule="nonzero" clip-path="url(#4015372224)"><path style=" stroke:none;fill-rule:nonzero;fill:#539246;fill-opacity:1;" d="M 139.058594 17.359375 L 116.238281 17.359375 L 116.238281 14.101562 C 116.238281 6.460938 110.019531 0.246094 102.378906 0.246094 L 60.738281 0.246094 C 53.097656 0.246094 46.878906 6.460938 46.878906 14.101562 L 46.878906 17.359375 L 24.058594 17.359375 C 18.082031 17.359375 13.214844 22.226562 13.214844 28.203125 L 13.214844 33.34375 C 13.214844 38.9375 17.480469 43.558594 22.925781 44.128906 L 34.089844 142.105469 C 35.15625 151.464844 43.0625 158.519531 52.480469 158.519531 L 110.636719 158.519531 C 120.054688 158.519531 127.960938 151.464844 129.023438 142.105469 L 140.191406 44.128906 C 145.640625 43.558594 149.898438 38.9375 149.898438 33.34375 L 149.898438 28.203125 C 149.898438 22.226562 145.035156 17.359375 139.054688 17.359375 Z M 53.917969 14.101562 C 53.917969 10.339844 56.976562 7.28125 60.742188 7.28125 L 102.378906 7.28125 C 106.144531 7.28125 109.203125 10.339844 109.203125 14.101562 L 109.203125 17.359375 L 53.917969 17.359375 Z M 122.035156 141.308594 C 121.375 147.109375 116.476562 151.484375 110.636719 151.484375 L 52.484375 151.484375 C 46.648438 151.484375 41.746094 147.109375 41.085938 141.308594 L 30.019531 44.1875 L 133.105469 44.1875 L 122.039062 141.308594 Z M 142.867188 33.34375 C 142.867188 35.441406 141.160156 37.148438 139.058594 37.148438 L 24.058594 37.148438 C 21.960938 37.148438 20.253906 35.441406 20.253906 33.34375 L 20.253906 28.203125 C 20.253906 26.105469 21.960938 24.398438 24.058594 24.398438 L 139.054688 24.398438 C 141.15625 24.398438 142.863281 26.105469 142.863281 28.203125 L 142.863281 33.34375 Z M 142.867188 33.34375 "/></g><path style=" stroke:none;fill-rule:nonzero;fill:#539246;fill-opacity:1;" d="M 81.558594 132.441406 C 83.5 132.441406 85.078125 130.863281 85.078125 128.921875 L 85.078125 66.75 C 85.078125 64.804688 83.5 63.230469 81.558594 63.230469 C 79.617188 63.230469 78.039062 64.804688 78.039062 66.75 L 78.039062 128.921875 C 78.039062 130.863281 79.617188 132.441406 81.558594 132.441406 Z M 81.558594 132.441406 "/><path style=" stroke:none;fill-rule:nonzero;fill:#539246;fill-opacity:1;" d="M 102.59375 132.277344 C 102.707031 132.289062 102.824219 132.292969 102.9375 132.292969 C 104.726562 132.292969 106.257812 130.9375 106.433594 129.117188 L 112.460938 67.234375 C 112.648438 65.300781 111.234375 63.582031 109.300781 63.390625 C 107.339844 63.191406 105.644531 64.617188 105.457031 66.550781 L 99.429688 128.433594 C 99.242188 130.367188 100.65625 132.089844 102.589844 132.277344 Z M 102.59375 132.277344 "/><path style=" stroke:none;fill-rule:nonzero;fill:#539246;fill-opacity:1;" d="M 60.179688 132.292969 C 60.292969 132.292969 60.410156 132.289062 60.527344 132.277344 C 62.460938 132.089844 63.875 130.367188 63.6875 128.433594 L 57.660156 66.550781 C 57.46875 64.617188 55.777344 63.195312 53.816406 63.390625 C 51.882812 63.578125 50.46875 65.300781 50.65625 67.234375 L 56.683594 129.117188 C 56.859375 130.933594 58.390625 132.292969 60.179688 132.292969 Z M 60.179688 132.292969 "/></g></svg>